<?xml version="1.0" encoding="UTF-8"?>
<svg id="Layer_1" data-name="Layer 1" xmlns="http://www.w3.org/2000/svg" viewBox="0 0 240.48 240.55">
  <defs>
    <style>
      .cls-1 {
        fill: #fff;
      }
    </style>
  </defs>
  <path class="cls-1" d="M240.47,155.82c0-8.45-.06-16.91-.09-25.36,.01-7.32,.25-14.64-.46-21.96-2.1-21.61-9.69-41.09-22.3-58.71-6.76-9.44-14.88-17.51-24.07-24.57-8.75-6.72-18.21-12.26-28.35-16.45C145.42,.62,124.82-1.72,103.62,1.22c-24.67,3.42-46.18,13.68-64.56,30.34-9.71,8.8-17.79,19.02-24.09,30.57C5.27,79.91,.04,98.85,.15,119.18c-.43,6.78,.13,13.53,1.28,20.19,5.29,30.59,19.93,55.8,44.25,75.14,20.86,16.58,44.73,25.58,71.44,25.86,33.07,.35,66.15,.11,99.22,.1,1.68,0,3.36,0,5.04-.4,11.52-2.68,19.02-11.83,19.06-23.65,.08-20.2,.05-40.4,.04-60.6Zm-69.89,46.42c-12.26,7.56-25.55,12.19-39.87,13.82-11.4,1.3-22.64,.28-33.76-2.33-20.66-4.86-37.15-16.27-50.91-32.14-7.98-9.2-13.35-19.89-17.33-31.14-3.53-9.98-4.68-20.61-4.85-31.25,.73-20.94,6.8-40.08,19.64-56.77,16.33-21.24,37.79-34,64.44-37.43,48.53-6.25,93.15,24.14,105.63,71.7,2.06,7.85,2.91,15.86,3,23.95,.03,3.08-.66,6.15-.4,9.25h0c-1.34,9.1-3.22,18.05-6.8,26.59-8.1,19.36-20.89,34.72-38.79,45.76Z"/>
  <path class="cls-1" d="M180.53,111.17c.05-2.22-.59-2.86-2.83-2.84-14.18,.1-28.37,0-42.55,.1-2.35,.02-3.02-.69-3.01-3.02,.1-14.18,.02-28.37,.12-42.55,.02-2.23-.62-2.89-2.84-2.84-6.1,.14-12.21,.14-18.32,0-2.23-.05-2.86,.6-2.84,2.84,.1,14.09,0,28.18,.13,42.27,.02,2.59-.69,3.34-3.3,3.31-14.09-.12-28.18-.01-42.27-.11-2.24-.02-2.89,.62-2.83,2.84,.15,6.01,.19,12.03-.01,18.03-.09,2.59,.79,3.09,3.19,3.07,13.9-.11,27.81,0,41.71-.11,2.61-.02,3.81,.53,3.52,3.38-.22,2.23,0,4.5,.03,6.76-.03,12.1-.05,24.21-.12,36.31,0,1.44,.49,1.99,1.96,1.98,6.66-.05,13.33-.05,19.99,0,1.47,.01,1.97-.54,1.96-1.98-.07-12.1-.08-24.21-.12-36.31,.03-2.07,.07-4.13,.07-6.2q.01-3.88,3.76-3.88c13.9,0,27.81-.04,41.71,.04,2.13,.01,2.96-.45,2.9-2.78-.16-6.1-.15-12.21,0-18.31Z"/>
</svg>