<?xml version="1.0" encoding="UTF-8"?>
<svg id="Layer_1" data-name="Layer 1" xmlns="http://www.w3.org/2000/svg" viewBox="0 0 199.76 196.41">
  <defs>
    <style>
      .cls-1 {
        fill: #fff;
      }
    </style>
  </defs>
  <path class="cls-1" d="M139.59,130.99c-.98-.54-1.59-.87-2.19-1.23-4.49-2.62-8.55-5.73-11.49-10.12-1.11-1.66-1.01-2.91,.66-4.35,1.57-1.35,3.63-4.05,4.74-5.8,4.12-6.45,8.1-13,12.19-19.47,2.62-4.14,5.19-8.29,6.17-13.19,.82-4.11,.39-8.32-3.94-10.17-.44-.19-.82-1.12-.81-1.69,.11-6.19,.28-12.38,.48-18.58,.35-11.21-2.92-20.94-11.57-28.48-5.95-5.18-12.7-9.07-19.86-12.31-5.78-2.62-11.71-4.79-18.07-5.39-6.29-.6-6.51-.39-8.61,5.51-.77,2.17-2.01,3.69-4.11,4.62-2.51,1.1-5.08,2.08-7.4,3.53-10.3,6.46-16.71,15.38-16.83,27.95-.07,7.43,.17,14.86,.22,22.29,0,.57-.28,1.43-.71,1.68-4.04,2.37-6.29,6.6-5.03,11.02,1.3,4.58,3.58,8.97,5.91,13.04,1.04,1.81,2.19,3.55,3.36,5.27,4.8,7.04,8.61,14.8,14.76,20.88,.88,.87,.85,1.78,.14,2.6-2.15,2.51-4.14,5.24-6.63,7.37-5.75,4.91-12.77,7.43-19.86,9.72-8.85,2.86-17.83,5.36-26.51,8.65-13.04,4.94-21.85,13.97-24.43,28.12,0,.04-.01,.07-.02,.11-1.06,5.87,3.65,11.22,9.62,11.22H127.15c-.95-1.66-2.14-3.13-2.67-4.82-1.05-3.28-1.89-6.64-2.52-10.02-.58-3.15,.36-6.09,2.3-8.62,.89-1.16,2.03-2.14,3.05-3.2-2.34-4.14-3.08-6.78-1.97-10.41,.74-2.45,2.28-4.65,3.4-6.99,2.16-4.51,5.15-8.01,10.85-8.76Z"/>
  <path class="cls-1" d="M170.23,196.41c-2.64-.87-2.92-3.29-3.34-5.45-.33-1.71-1.2-2.01-2.77-2.49-3.55-1.09-5.46,.01-6.82,3.29-.7,1.7-2.5,2.12-4.18,1.28-2.03-1.03-4.01-2.17-5.93-3.4-1.64-1.05-1.92-2.65-.95-4.42,.78-1.43,1.6-2.83,2.4-4.24-1.12-1.61-2.19-3.25-3.38-4.79-.26-.33-.98-.51-1.44-.43-1.08,.18-2.13,.57-3.2,.84-2.08,.54-3.7-.23-4.31-2.21-.67-2.19-1.24-4.41-1.72-6.64-.38-1.76,.73-3.28,2.53-3.43,4.21-.35,5.52-2.84,5.67-6.64,.04-1.06-.08-1.62-1.09-2.17-3.15-1.72-3.99-5.92-2.2-9.03,2.74-4.78,3.45-5.42,8.72-2.1,1.24,.78,2.11,.82,3.22-.24,1.08-1.01,2.42-1.74,3.82-2.72-.31-1.19-.66-2.48-.98-3.78-.69-2.77,0-4.04,2.7-4.82,1.81-.52,3.63-1.04,5.46-1.47,2.16-.5,3.75,.18,4.01,2.26,.5,4.06,2.58,5.83,6.56,5.67,.43-.02,.86,.2,1.41,.34,.73-1.26,1.42-2.51,2.16-3.72,1.27-2.07,2.88-2.5,4.96-1.33,1.65,.93,3.28,1.87,4.9,2.85,2.18,1.31,2.54,2.85,1.26,5.1-.74,1.3-1.48,2.6-2.19,3.85,1.1,1.62,2.1,3.23,3.25,4.71,.29,.38,1.09,.6,1.6,.53,1.02-.13,2.01-.51,3.01-.77,2-.52,4.01,.75,4.61,2.72s1.18,3.83,1.77,5.75l-.12,1.8c-1.64,2.87-4.96,2.21-7.4,3.55-.06,.54,0,1.17-.21,1.68-1.42,3.51-.37,5.72,3.18,7.17,1.84,.75,2.11,2.54,1.15,4.32-.97,1.81-1.99,3.6-3.05,5.35-.97,1.6-3.07,2.19-4.72,1.3-1.15-.62-2.24-1.35-3.42-1.89-.44-.2-1.19-.24-1.56,0-1.62,1.06-3.15,2.25-4.73,3.4,.37,1.35,.76,2.65,1.09,3.97,.49,1.96-.69,3.99-2.63,4.57-2.1,.63-4.22,1.24-6.32,1.86h-.79Zm-16.05-32.82c-.02,7.17,5.57,12.89,12.7,13.01,6.42,.11,12.18-4.74,13.03-11.11,1.06-7.93-5.13-14.74-12.93-14.79-6.89-.04-12.77,5.89-12.8,12.9Z"/>
  <path class="cls-1" d="M139.59,130.99c-5.69,.75-8.68,4.26-10.85,8.76-1.12,2.34-2.66,4.54-3.4,6.99-1.1,3.63-.37,6.27,1.97,10.41-1.03,1.06-2.16,2.04-3.05,3.2-1.94,2.53-2.88,5.47-2.3,8.62,.63,3.38,1.47,6.74,2.52,10.02,.54,1.68,1.73,3.15,2.67,4.82H9.77c-5.97,0-10.67-5.34-9.62-11.22,0-.04,.01-.07,.02-.11,2.58-14.16,11.39-23.18,24.43-28.12,8.68-3.29,17.66-5.79,26.51-8.65,7.09-2.29,14.11-4.81,19.86-9.72,2.49-2.13,4.48-4.86,6.63-7.37,.7-.82,.73-1.74-.14-2.6-6.16-6.07-9.96-13.83-14.76-20.88-1.18-1.73-2.33-3.46-3.36-5.27-2.33-4.07-4.61-8.46-5.91-13.04-1.26-4.42,1-8.65,5.03-11.02,.43-.25,.71-1.11,.71-1.68-.05-7.43-.29-14.86-.22-22.29,.11-12.57,6.53-21.49,16.83-27.95,2.32-1.46,4.9-2.43,7.4-3.53,2.1-.92,3.34-2.45,4.11-4.62C89.38-.17,89.6-.37,95.89,.23c6.36,.6,12.29,2.77,18.07,5.39,7.15,3.24,13.91,7.13,19.86,12.31,8.65,7.54,11.92,17.27,11.57,28.48-.19,6.19-.37,12.38-.48,18.58-.01,.58,.37,1.5,.81,1.69,4.34,1.85,4.76,6.05,3.94,10.17-.97,4.89-3.55,9.04-6.17,13.19-4.09,6.47-8.07,13.02-12.19,19.47-1.12,1.75-3.17,4.44-4.74,5.8-1.67,1.44-1.77,2.7-.66,4.35,2.94,4.39,7,7.5,11.49,10.12,.6,.35,1.22,.68,2.19,1.23Z"/>
</svg>