<svg xmlns="http://www.w3.org/2000/svg" width="100" height="100" viewBox="0 0 100 100">
  <g id="ic_user_gray" transform="translate(-1289 -200)">
    <circle id="Ellipse_1" data-name="Ellipse 1" cx="50" cy="50" r="50" transform="translate(1289 200)" fill="#fff"/>
    <path id="user_o" d="M60.97,59.423l-1.525-6.1a8.858,8.858,0,0,0-5.808-6.3L42.453,43.3c-2.727-1.136-3.975-5.528-4.245-7.2a10.568,10.568,0,0,0,3.736-6.87,2.072,2.072,0,0,1,.308-1.309,1.271,1.271,0,0,0,.872-.763A19,19,0,0,0,44.487,21.6a1.222,1.222,0,0,0-.038-.308,3.269,3.269,0,0,0-1.233-1.85V12.709c0-4.095-1.251-5.775-2.567-6.748C40.4,3.988,38.285,0,30.507,0A13.253,13.253,0,0,0,17.8,12.709v6.738a3.269,3.269,0,0,0-1.233,1.85,1.222,1.222,0,0,0-.038.308,19,19,0,0,0,1.362,5.556,1.08,1.08,0,0,0,.763.73c.142.071.409.44.409,1.34a10.566,10.566,0,0,0,3.757,6.883c-.267,1.665-1.507,6.054-4.158,7.163L7.377,47.022a8.858,8.858,0,0,0-5.805,6.3l-1.525,6.1A1.271,1.271,0,0,0,1.277,61h58.46a1.271,1.271,0,0,0,1.233-1.579Z" transform="translate(1308.992 219)" fill="#455a64"/>
  </g>
</svg>
