<?xml version="1.0" encoding="UTF-8"?>
<svg id="Layer_1" data-name="Layer 1" xmlns="http://www.w3.org/2000/svg" viewBox="0 0 241 241">
  <defs>
    <style>
      .cls-1 {
        fill: #fff;
      }
    </style>
  </defs>
  <path class="cls-1" d="M177.92,0H63.08C28.24,0,0,28.24,0,63.08v114.83c0,34.84,28.24,63.08,63.08,63.08h114.83c34.84,0,63.08-28.24,63.08-63.08V63.08C241,28.24,212.76,0,177.92,0Zm-50.71,70.84h66.84c15.63,0,15.6,24.24,0,24.24H127.2c-15.63,0-15.6-24.24,0-24.24Zm-25.48,76.58l-32.38,33.07c-4.11,4.2-10.8,4.43-15.19,.53l-19.68-17.5c-4.64-4.12-4.96-11.26-.7-15.78l.66-.7c4.18-4.44,11.17-4.64,15.6-.45l10.98,10.4,25.07-25.07c4.36-4.36,11.44-4.29,15.72,.14,4.14,4.29,4.11,11.09-.06,15.35Zm0-82l-32.38,33.07c-4.11,4.2-10.8,4.43-15.19,.53l-19.68-17.5c-4.64-4.12-4.96-11.26-.7-15.78l.66-.7c4.18-4.44,11.17-4.64,15.6-.45l10.98,10.4,25.07-25.07c4.36-4.36,11.44-4.29,15.72,.14,4.14,4.29,4.11,11.09-.06,15.35Zm95.69,113.17H125.71c-15.63,0-15.6-24.24,0-24.24h71.71c15.63,0,15.6,24.24,0,24.24Z"/>
</svg>