<?xml version="1.0" encoding="UTF-8"?>
<svg id="Layer_1" data-name="Layer 1" xmlns="http://www.w3.org/2000/svg" viewBox="0 0 240.51 183.57">
  <defs>
    <style>
      .cls-1 {
        fill: #fff;
      }
    </style>
  </defs>
  <g id="_5U5bNL.tif" data-name="5U5bNL.tif">
    <g>
      <path class="cls-1" d="M112.85,183.56V.14h71.29c0,.78,0,1.6,0,2.43,0,15.22,0,30.43,0,45.65,0,5.53,2.7,8.27,8.17,8.27,15.11,0,30.21,0,45.32,0,.85,0,1.7,0,2.87,0v2.63c0,38.67,0,77.33,0,116,0,5.81-2.65,8.46-8.46,8.46-38.9,0-77.8,0-116.7,0-.77,0-1.54,0-2.49,0Zm56.97-112.95c-11.74,0-23.48,.02-35.22-.01-3.3,0-5.81,1.29-7.16,4.33-2.11,4.75,1.43,9.77,6.92,9.78,16.36,.04,32.72,.01,49.07,.01,7.12,0,14.24,0,21.37,0,3.21,0,5.62-1.37,6.92-4.32,2.1-4.76-1.44-9.76-6.92-9.78-11.66-.04-23.32-.01-34.99-.01Zm-.32,42.35c11.74,0,23.48,0,35.22,0,3.09,0,5.48-1.22,6.86-4.04,2.34-4.8-1.12-10.03-6.7-10.06-11.19-.05-22.38-.01-33.58-.01-12.29,0-24.58,0-36.86,0-3.1,0-5.48,1.23-6.86,4.04-2.35,4.78,1.13,10.04,6.7,10.06,11.74,.05,23.48,.01,35.22,.02Zm-.1,28.24c11.66,0,23.32,0,34.99,0,4.74,0,7.96-2.91,7.92-7.1-.03-4.19-3.23-6.99-8.02-7-4.3,0-8.61,0-12.91,0-18.86,0-37.73,.02-56.59-.02-3.28,0-5.83,1.14-7.26,4.17-2.26,4.8,1.29,9.93,6.89,9.94,11.66,.04,23.32,.01,34.99,.01Zm-20.94-98.82c-4.7,0-9.39-.03-14.09,0-4.35,.03-7.51,3.02-7.52,7.03,0,4.01,3.15,7.04,7.49,7.06,9.39,.03,18.78,.03,28.17,0,4.37-.01,7.51-3,7.51-7.03,0-4.03-3.14-7.02-7.49-7.06-4.7-.03-9.39,0-14.09,0Z"/>
      <path class="cls-1" d="M98.5,42.77c-29.33-4.27-56.19,18.93-56.19,49.01,0,30.14,26.92,53.3,56.21,49.02v42.76c-3.42,0-6.84,0-10.25,0-3.21,0-6.42,0-9.63,0-5.45-.01-8.15-2.75-8.16-8.29,0-2.43,.08-4.87-.06-7.29-.04-.64-.64-1.58-1.22-1.82-5.11-2.13-10.26-4.14-15.85-6.35-1.85,1.93-3.97,4.24-6.19,6.44-3.37,3.35-7.39,3.33-10.77-.04-6.38-6.36-12.75-12.73-19.09-19.13-3.33-3.36-3.31-7.41,.03-10.79,2.15-2.17,4.36-4.27,6.5-6.37-1.75-4.04-3.51-7.86-5.06-11.76-2.04-5.16-1.97-5.19-7.5-5.19-1.49,0-2.98,.06-4.46-.02-3.75-.2-6.72-3.06-6.76-6.81-.09-9.57-.09-19.13,0-28.7,.04-3.84,3.1-6.71,6.99-6.82,2.82-.07,5.64,.06,8.45-.07,.65-.03,1.63-.59,1.86-1.15,2.12-5.12,4.11-10.3,6.34-15.97-1.87-1.8-4.16-3.93-6.36-6.14-3.35-3.38-3.37-7.43-.05-10.79,6.34-6.4,12.71-12.78,19.09-19.13,3.39-3.37,7.4-3.39,10.77-.06,2.22,2.2,4.36,4.48,6.23,6.41,5.62-2.21,10.86-4.24,16.04-6.38,.5-.21,.97-1.14,1-1.75,.11-2.66,.03-5.33,.05-8,.05-4.59,2.92-7.54,7.45-7.57,6.8-.04,13.6-.01,20.57-.01V42.77Z"/>
      <path class="cls-1" d="M98.52,71.61c-10.25-2.56-18.8-.07-24.65,8.88-4.69,7.17-4.63,14.83-.26,22.23,4.82,8.18,11.53,10.62,24.97,9.36v14.05c-8.49,2.66-24.32,.42-34.52-12.37-9.34-11.72-10.24-28.25-2.15-40.9,7.91-12.37,23.17-18.89,36.61-15.54v14.3Z"/>
      <path class="cls-1" d="M235.09,42.28h-36.73V5.47c12.14,12.16,24.59,24.64,36.73,36.81Z"/>
      <path class="cls-1" d="M91.56,98.84c-3.8-.03-6.98-3.25-6.98-7.06,0-3.9,3.33-7.15,7.22-7.05,3.8,.1,6.93,3.37,6.87,7.17-.07,3.81-3.3,6.97-7.1,6.94Z"/>
    </g>
  </g>
</svg>