<?xml version="1.0" encoding="UTF-8"?>
<svg id="Layer_1" data-name="Layer 1" xmlns="http://www.w3.org/2000/svg" viewBox="0 0 165.27 196.43">
  <defs>
    <style>
      .cls-1 {
        fill: #fff;
      }
    </style>
  </defs>
  <g id="Gil6P5.tif">
    <g>
      <path class="cls-1" d="M0,190.51V32.71c1.79-4.38,5.1-5.98,9.73-5.75,4.53,.23,9.08,.05,13.61,.05h4.06V60.04h110.2V27.01c6.1,0,12.02,.17,17.93-.06,4.64-.18,7.94,1.38,9.73,5.75V190.51c-1.61,4.38-4.76,5.92-9.37,5.92-48.84-.09-97.68-.09-146.52,0-4.6,0-7.77-1.52-9.37-5.91Zm73.17-41.34c-.86-.7-1.65-1.33-2.43-1.97-10.94-9.05-21.88-18.11-32.83-27.15-2.02-1.67-2.91-1.58-4.57,.42-2.15,2.59-4.27,5.21-6.4,7.82-2.09,2.57-2.02,3.28,.54,5.37,14.84,12.15,29.68,24.3,44.52,36.45,2.9,2.37,2.88,2.37,5.21-.48,12.78-15.65,25.56-31.3,38.34-46.95,8.47-10.38,16.95-20.75,25.42-31.13,1.79-2.2,1.73-2.71-.41-4.46-2.6-2.13-5.25-4.22-7.82-6.39-1.58-1.33-2.74-1.11-4.04,.49-10.43,12.84-20.91,25.64-31.38,38.45-8.01,9.81-16.02,19.61-24.13,29.54Z"/>
      <path class="cls-1" d="M110.81,17.4h12.89v30.09H41.31V17.36h13.1c0-2.22-.04-4.18,0-6.14,.15-6.33,4.61-11.05,10.92-11.12,11.49-.13,22.99-.13,34.48,0,6.41,.07,10.88,4.84,10.98,11.3,.03,1.89,0,3.78,0,6.01Zm-15.81,6.99c.08-7.05-5.39-12.69-12.32-12.7-6.74-.02-12.31,5.49-12.38,12.22-.06,6.92,5.3,12.44,12.22,12.58,7.21,.15,12.39-4.88,12.47-12.1Z"/>
    </g>
  </g>
</svg>