<?xml version="1.0" encoding="UTF-8"?>
<svg id="Layer_1" data-name="Layer 1" xmlns="http://www.w3.org/2000/svg" viewBox="0 0 241.06 196.33">
  <defs>
    <style>
      .cls-1 {
        fill: #fff;
      }
    </style>
  </defs>
  <path class="cls-1" d="M83.75,196.33c-24.77,0-49.54,0-74.31,0-6.43,0-9.5-3.12-9.44-9.58,.38-39.33,30.09-74.32,68.65-80.87,47.14-8,89.91,22.21,97.92,69.24,.67,3.94,.9,7.98,1.04,11.99,.2,5.92-3.12,9.21-9.04,9.21-24.94,0-49.88,0-74.81,0Z"/>
  <path class="cls-1" d="M37.86,45.8C38.28,19.69,59.06-.47,85.06,0c24.95,.46,44.96,21.46,44.6,46.82-.36,25.39-21.39,45.48-47.13,45.02-24.55-.43-45.07-21.58-44.67-46.05Z"/>
  <path class="cls-1" d="M150.48,113.59c15.29-8.58,31.26-10.65,47.99-5.64,24.82,7.44,42.39,30.91,42.58,56.65,.04,5.61-3.18,9-8.78,9.02-15.9,.04-31.81,.01-47.71,.03-1.19,0-2.01-.08-2.27-1.6-3.97-22.76-14.24-42.12-31.41-57.7-.11-.1-.16-.29-.4-.76Z"/>
  <path class="cls-1" d="M180.7,95.88c-18.83-.03-34.09-15.38-34.06-34.25,.03-18.84,15.37-34.09,34.25-34.06,18.84,.03,34.1,15.37,34.07,34.24-.04,18.84-15.38,34.1-34.25,34.07Z"/>
</svg>